<?xml version="1.0" encoding="utf-8"?>
<!-- Generator: Adobe Illustrator 23.0.4, SVG Export Plug-In . SVG Version: 6.00 Build 0)  -->
<svg version="1.1" id="Calque_1" xmlns="http://www.w3.org/2000/svg" xmlns:xlink="http://www.w3.org/1999/xlink" x="0px" y="0px"
	 viewBox="0 0 600 100" style="enable-background:new 0 0 600 100;" xml:space="preserve">
<style type="text/css">
	.st0{fill:url(#SVGID_1_);}
	.st1{fill:url(#SVGID_2_);}
	.st2{fill:url(#SVGID_3_);}
	.st3{fill:url(#SVGID_4_);}
	.st4{fill:url(#SVGID_5_);}
</style>
<g>
	<g>
		<linearGradient id="SVGID_1_" gradientUnits="userSpaceOnUse" x1="143.9534" y1="48.7108" x2="233.6018" y2="48.7108">
			<stop  offset="0" style="stop-color:#B37E11"/>
			<stop  offset="0.2151" style="stop-color:#E2BE57"/>
			<stop  offset="0.328" style="stop-color:#F9DE7C"/>
			<stop  offset="0.524" style="stop-color:#FEF2A6"/>
			<stop  offset="0.7298" style="stop-color:#F9DE7C"/>
			<stop  offset="1" style="stop-color:#B37E11"/>
		</linearGradient>
		<path class="st0" d="M161.07,91.34l8.65-31.94l-25.77-20.75L177,37.01l11.77-30.93l11.77,30.93l33.05,1.64L207.83,59.4l8.65,31.94
			l-27.7-18.1L161.07,91.34z"/>
	</g>
</g>
<g>
	<g>
		<linearGradient id="SVGID_2_" gradientUnits="userSpaceOnUse" x1="31.5705" y1="48.7108" x2="121.2189" y2="48.7108">
			<stop  offset="0" style="stop-color:#B37E11"/>
			<stop  offset="0.2151" style="stop-color:#E2BE57"/>
			<stop  offset="0.328" style="stop-color:#F9DE7C"/>
			<stop  offset="0.524" style="stop-color:#FEF2A6"/>
			<stop  offset="0.7298" style="stop-color:#F9DE7C"/>
			<stop  offset="1" style="stop-color:#B37E11"/>
		</linearGradient>
		<path class="st1" d="M48.69,91.34l8.65-31.94L31.57,38.65l33.05-1.64L76.39,6.08l11.77,30.93l33.05,1.64L95.44,59.4l8.65,31.94
			l-27.7-18.1L48.69,91.34z"/>
	</g>
</g>
<g>
	<g>
		<linearGradient id="SVGID_3_" gradientUnits="userSpaceOnUse" x1="254.5327" y1="48.7108" x2="344.1811" y2="48.7108">
			<stop  offset="0" style="stop-color:#B37E11"/>
			<stop  offset="0.2151" style="stop-color:#E2BE57"/>
			<stop  offset="0.328" style="stop-color:#F9DE7C"/>
			<stop  offset="0.524" style="stop-color:#FEF2A6"/>
			<stop  offset="0.7298" style="stop-color:#F9DE7C"/>
			<stop  offset="1" style="stop-color:#B37E11"/>
		</linearGradient>
		<path class="st2" d="M271.65,91.34l8.65-31.94l-25.77-20.75l33.05-1.64l11.77-30.93l11.77,30.93l33.05,1.64L318.41,59.4
			l8.65,31.94l-27.7-18.1L271.65,91.34z"/>
	</g>
</g>
<g>
	<g>
		<linearGradient id="SVGID_4_" gradientUnits="userSpaceOnUse" x1="360.5462" y1="48.7108" x2="450.1946" y2="48.7108">
			<stop  offset="0" style="stop-color:#B37E11"/>
			<stop  offset="0.2151" style="stop-color:#E2BE57"/>
			<stop  offset="0.328" style="stop-color:#F9DE7C"/>
			<stop  offset="0.524" style="stop-color:#FEF2A6"/>
			<stop  offset="0.7298" style="stop-color:#F9DE7C"/>
			<stop  offset="1" style="stop-color:#B37E11"/>
		</linearGradient>
		<path class="st3" d="M377.67,91.34l8.65-31.94l-25.77-20.75l33.05-1.64l11.77-30.93l11.77,30.93l33.05,1.64L424.42,59.4
			l8.65,31.94l-27.7-18.1L377.67,91.34z"/>
	</g>
</g>
<g>
	<g>
		<linearGradient id="SVGID_5_" gradientUnits="userSpaceOnUse" x1="467.653" y1="48.7108" x2="557.3014" y2="48.7108">
			<stop  offset="0" style="stop-color:#B37E11"/>
			<stop  offset="0.2151" style="stop-color:#E2BE57"/>
			<stop  offset="0.328" style="stop-color:#F9DE7C"/>
			<stop  offset="0.524" style="stop-color:#FEF2A6"/>
			<stop  offset="0.7298" style="stop-color:#F9DE7C"/>
			<stop  offset="1" style="stop-color:#B37E11"/>
		</linearGradient>
		<path class="st4" d="M484.77,91.34l8.65-31.94l-25.77-20.75l33.05-1.64l11.77-30.93l11.77,30.93l33.05,1.64L531.53,59.4
			l8.65,31.94l-27.7-18.1L484.77,91.34z"/>
	</g>
</g>
</svg>
